<svg width="26.005" height="23.974" fill="none" xmlns="http://www.w3.org/2000/svg"><path d="M21.33 21.97c.04-.01.06-.03.08-.05l.03-.03c.03-.04.04-.13.03-.18-.01-.1-.1-.18-.18-.18h-.01c-.07.01-.16.11-.16.24.01.11.1.2.17.2h.04Zm-13.66-.01c.1 0 .18-.09.18-.21 0-.11-.08-.21-.18-.21-.1 0-.18.1-.18.21 0 .12.08.21.18.21Zm13.78 2.01h-.16c-1.14 0-2.08-.91-2.16-2.07-.08-1.2.82-2.28 2.02-2.36.05 0 .09-.01.14-.01 1.14 0 2.1.91 2.18 2.06.03.6-.14 1.17-.53 1.61-.38.46-.91.72-1.49.77Zm-13.78-.01c-1.2 0-2.18-.99-2.18-2.21s.98-2.21 2.18-2.21c1.21 0 2.18.99 2.18 2.21s-.97 2.21-2.18 2.21Zm12.98-6.86H8.59c-.44 0-.82-.3-.93-.72L3.73 1.95H.97A.975.975 0 0 1 .97 0h3.48c.43 0 .82.29.93.71l3.93 14.43h10.7l3.56-8.3H11.71c-.53 0-.96-.44-.96-.98s.43-.98.96-.98h13.33c.32 0 .63.16.8.44.18.28.21.62.08.93l-4.39 10.26c-.16.36-.5.59-.88.59Z" fill="#FFF"/></svg>