<svg width="29" height="29" fill="none" xmlns="http://www.w3.org/2000/svg"><path d="M14.5 19.93c4.5 0 8.15-4.47 8.15-9.97C22.65 4.47 19 0 14.5 0a7.43 7.43 0 0 0-5.84 3 11.106 11.106 0 0 0-2.32 6.97c0 5.49 3.66 9.96 8.16 9.96Zm0-18.12c3.5 0 6.34 3.66 6.34 8.15 0 4.5-2.85 8.16-6.34 8.16-3.5 0-6.35-3.66-6.35-8.16 0-4.49 2.85-8.15 6.35-8.15Zm6.34 16.31c-.24 0-.47.1-.64.27a.91.91 0 0 0-.27.64c0 .24.1.47.27.64.17.17.4.26.64.26 1.68 0 3.29.67 4.48 1.86a6.36 6.36 0 0 1 1.86 4.49.9.9 0 0 1-.26.64.9.9 0 0 1-.64.26H2.71a.9.9 0 0 1-.64-.26.944.944 0 0 1-.26-.64c0-1.68.67-3.3 1.86-4.49a6.378 6.378 0 0 1 4.48-1.86.9.9 0 0 0 .64-.26c.17-.17.27-.4.27-.64s-.1-.47-.27-.64a.91.91 0 0 0-.64-.27c-2.16 0-4.23.86-5.76 2.39A8.15 8.15 0 0 0 0 26.28c0 .72.28 1.41.79 1.92s1.2.79 1.92.8h23.57a2.76 2.76 0 0 0 1.92-.8c.51-.51.79-1.2.8-1.92a8.202 8.202 0 0 0-2.4-5.77 8.145 8.145 0 0 0-5.76-2.39Z" fill="#E8E8E8"/></svg>