<svg width="26.002" height="26.792" fill="none" xmlns="http://www.w3.org/2000/svg"><path d="M18.06 17.41c1.61-1.76 2.57-4.02 2.71-6.4.14-2.39-.54-4.74-1.94-6.68-1.39-1.94-3.4-3.34-5.71-3.97a10.382 10.382 0 0 0-11.98 5.3 10.404 10.404 0 0 0-.92 6.89c.5 2.33 1.78 4.43 3.64 5.93s4.17 2.31 6.56 2.3c2.25.01 4.44-.73 6.24-2.08l7.75 7.8c.08.09.18.16.3.21.11.05.23.08.36.08a.937.937 0 0 0 .66-.29.98.98 0 0 0 .27-.67c0-.25-.1-.49-.27-.67l-7.67-7.75ZM1.88 10.28c.02-1.68.53-3.32 1.47-4.72A8.561 8.561 0 0 1 7.2 2.45c1.56-.64 3.27-.8 4.92-.46 1.65.33 3.17 1.15 4.36 2.35a8.534 8.534 0 0 1 2.31 4.37c.33 1.65.16 3.37-.49 4.92a8.463 8.463 0 0 1-3.15 3.82c-1.4.94-3.05 1.44-4.73 1.44a8.641 8.641 0 0 1-6.05-2.54 8.597 8.597 0 0 1-2.49-6.07Z" fill="#E8E8E8"/></svg>